# xmcd CD database file
#
# Track frame offsets:
#	150
#	24560
#	42427
#	64296
#	88904
#	108709
#	133955
#	157663
#	178820
#	202738
#
# Disc length: 3077 seconds
#
# Revision: 1
# Processed by: cddbd v1.5.2PL0 Copyright (c) Steve Scherf et al.
# Submitted via: CDex 1.83
#
DISCID=8b0c030a
DTITLE=Tom Browne - Tommy Gun
DYEAR=1984
DGENRE=Jazz+Funk
TTITLE0=Loop (David Spradley)
TTITLE1=Station Break (Maurice Starr)
TTITLE2=Secret Fantasy (Maurice Starr)
TTITLE3=Tommy Gun (David Spradley)
TTITLE4=Break Out (Maurice Starr)
TTITLE5=Wee Out (Tom Browne)
TTITLE6=Hit Man (Tom Browne)
TTITLE7=Free and Easy (Maurice Starr)
TTITLE8=(bonus track) Loop (Extended Remix) (David Spradley)
TTITLE9=(bonus track) Secret Fantasy (12" Version) (Maurice Starr)
EXTD=YEAR: 1984
EXTT0=
EXTT1=
EXTT2=
EXTT3=
EXTT4=
EXTT5=
EXTT6=
EXTT7=
EXTT8=
EXTT9=
PLAYORDER=
